<svg width="200" height="200" viewBox="0 0 200 200" fill="none" xmlns="http://www.w3.org/2000/svg">
<rect x="2" y="2" width="196" height="196" rx="10" fill="#F4F0F0" stroke="#69ACC8" stroke-width="4" stroke-linejoin="round"/>
<g filter="url(#filter0_d_1_7)">
<path d="M125.15 46.2571C118.85 46.2571 111.85 49.7071 104.15 56.6071C96.55 63.5071 90.05 72.1571 84.65 82.5571C79.25 92.8571 76.55 102.457 76.55 111.357C76.55 114.957 77.7 118.057 80 120.657C82.3 123.157 85 124.407 88.1 124.407C92.9 124.407 98.5 121.807 104.9 116.607C111.4 111.307 117.4 104.507 122.9 96.2071C117.3 97.7071 113.15 98.4571 110.45 98.4571C107.75 98.4571 105.45 97.7571 103.55 96.3571C101.65 94.8571 100.7 93.4571 100.7 92.1571C100.7 90.5571 102.85 89.3071 107.15 88.4071C111.45 87.4071 116.85 86.9071 123.35 86.9071C126.95 86.9071 129.85 88.4571 132.05 91.5571C134.35 94.5571 135.5 98.1071 135.5 102.207C135.5 106.207 133 115.707 128 130.707C123 145.707 119.2 153.207 116.6 153.207C114.1 153.207 112.85 151.757 112.85 148.857C112.85 146.057 113.55 142.257 114.95 137.457C116.45 132.657 118 127.757 119.6 122.757C121.2 117.657 122.5 113.507 123.5 110.307C118.6 118.607 113.05 125.207 106.85 130.107C100.65 134.907 94.6 137.307 88.7 137.307C82.9 137.307 77.15 134.607 71.45 129.207C65.75 123.707 62.9 117.707 62.9 111.207C62.9 101.107 66.1 89.8571 72.5 77.4571C78.9 65.0571 86.95 54.4571 96.65 45.6571C106.35 36.7571 115.45 32.3071 123.95 32.3071C126.75 32.3071 129.5 34.0071 132.2 37.4071C134.9 40.7071 136.25 43.4071 136.25 45.5071C136.25 47.5071 135.7 48.5071 134.6 48.5071C134.3 48.5071 133.2 48.1571 131.3 47.4571C129.4 46.6571 127.35 46.2571 125.15 46.2571Z" fill="#E9661D"/>
</g>
<g filter="url(#filter1_d_1_7)">
<path d="M135.436 58.6857C129.136 58.6857 122.136 62.1357 114.436 69.0357C106.836 75.9357 100.336 84.5857 94.9357 94.9857C89.5357 105.286 86.8357 114.886 86.8357 123.786C86.8357 127.386 87.9857 130.486 90.2857 133.086C92.5857 135.586 95.2857 136.836 98.3857 136.836C103.186 136.836 108.786 134.236 115.186 129.036C121.686 123.736 127.686 116.936 133.186 108.636C127.586 110.136 123.436 110.886 120.736 110.886C118.036 110.886 115.736 110.186 113.836 108.786C111.936 107.286 110.986 105.886 110.986 104.586C110.986 102.986 113.136 101.736 117.436 100.836C121.736 99.8357 127.136 99.3357 133.636 99.3357C137.236 99.3357 140.136 100.886 142.336 103.986C144.636 106.986 145.786 110.536 145.786 114.636C145.786 118.636 143.286 128.136 138.286 143.136C133.286 158.136 129.486 165.636 126.886 165.636C124.386 165.636 123.136 164.186 123.136 161.286C123.136 158.486 123.836 154.686 125.236 149.886C126.736 145.086 128.286 140.186 129.886 135.186C131.486 130.086 132.786 125.936 133.786 122.736C128.886 131.036 123.336 137.636 117.136 142.536C110.936 147.336 104.886 149.736 98.9857 149.736C93.1857 149.736 87.4357 147.036 81.7357 141.636C76.0357 136.136 73.1857 130.136 73.1857 123.636C73.1857 113.536 76.3857 102.286 82.7857 89.8857C89.1857 77.4857 97.2357 66.8857 106.936 58.0857C116.636 49.1857 125.736 44.7357 134.236 44.7357C137.036 44.7357 139.786 46.4357 142.486 49.8357C145.186 53.1357 146.536 55.8357 146.536 57.9357C146.536 59.9357 145.986 60.9357 144.886 60.9357C144.586 60.9357 143.486 60.5857 141.586 59.8857C139.686 59.0857 137.636 58.6857 135.436 58.6857Z" fill="#0B2583"/>
</g>
<defs>
<filter id="filter0_d_1_7" x="58.9" y="32.3071" width="81.35" height="129.9" filterUnits="userSpaceOnUse" color-interpolation-filters="sRGB">
<feFlood flood-opacity="0" result="BackgroundImageFix"/>
<feColorMatrix in="SourceAlpha" type="matrix" values="0 0 0 0 0 0 0 0 0 0 0 0 0 0 0 0 0 0 127 0" result="hardAlpha"/>
<feOffset dy="5"/>
<feGaussianBlur stdDeviation="2"/>
<feComposite in2="hardAlpha" operator="out"/>
<feColorMatrix type="matrix" values="0 0 0 0 1 0 0 0 0 1 0 0 0 0 1 0 0 0 0.3 0"/>
<feBlend mode="normal" in2="BackgroundImageFix" result="effect1_dropShadow_1_7"/>
<feBlend mode="normal" in="SourceGraphic" in2="effect1_dropShadow_1_7" result="shape"/>
</filter>
<filter id="filter1_d_1_7" x="69.1857" y="44.7357" width="81.35" height="129.9" filterUnits="userSpaceOnUse" color-interpolation-filters="sRGB">
<feFlood flood-opacity="0" result="BackgroundImageFix"/>
<feColorMatrix in="SourceAlpha" type="matrix" values="0 0 0 0 0 0 0 0 0 0 0 0 0 0 0 0 0 0 127 0" result="hardAlpha"/>
<feOffset dy="5"/>
<feGaussianBlur stdDeviation="2"/>
<feComposite in2="hardAlpha" operator="out"/>
<feColorMatrix type="matrix" values="0 0 0 0 1 0 0 0 0 1 0 0 0 0 1 0 0 0 0.3 0"/>
<feBlend mode="normal" in2="BackgroundImageFix" result="effect1_dropShadow_1_7"/>
<feBlend mode="normal" in="SourceGraphic" in2="effect1_dropShadow_1_7" result="shape"/>
</filter>
</defs>
</svg>
